# xmcd
#
# Track frame offsets: 
#        150
#        14700
#        31650
#        48750
#        72750
#        85500
#
# Disc length: 1335 seconds
#
# Revision: 0
# Processed by: cddbd v1.5.2PL0 Copyright (c) Steve Scherf et al.
# Submitted via: ExactAudioCopy v0.99pb5
#
DISCID=3b053506
DTITLE=Mojo 57 - Mojo 57 - EP
DYEAR=2009
DGENRE=Blues
TTITLE0=Wine Women and Song
TTITLE1=Christmas Card From A Hooker In Minneapolis
TTITLE2=Hard Times (No One Knows Better Than I)
TTITLE3=I Need Your Love So Bad
TTITLE4=I Got The Key (Key To The Highway)
TTITLE5=You Gotta Help Me
EXTD=
EXTT0=
EXTT1=
EXTT2=
EXTT3=
EXTT4=
EXTT5=
PLAYORDER=
